<svg
   xmlns:dc="http://purl.org/dc/elements/1.1/"
   xmlns:cc="http://creativecommons.org/ns#"
   xmlns:rdf="http://www.w3.org/1999/02/22-rdf-syntax-ns#"
   xmlns:svg="http://www.w3.org/2000/svg"
   xmlns="http://www.w3.org/2000/svg"
   viewBox="0 0 162.61333 33.759998"
   height="33.759998"
   width="162.61333"
   xml:space="preserve"
   id="svg2"
   version="1.1"><metadata
     id="metadata8"><rdf:RDF><cc:Work
         rdf:about=""><dc:format>image/svg+xml</dc:format><dc:type
           rdf:resource="http://purl.org/dc/dcmitype/StillImage" /></cc:Work></rdf:RDF></metadata><defs
     id="defs6"><clipPath
       id="clipPath20"
       clipPathUnits="userSpaceOnUse"><path
         id="path18"
         d="M 0,0 H 1219.61 V 253 H 0 Z" /></clipPath></defs><g
     transform="matrix(1.3333333,0,0,-1.3333333,0,33.76)"
     id="g10"><g
       transform="scale(0.1)"
       id="g12"><g
         id="g14"><g
           clip-path="url(#clipPath20)"
           id="g16"><path
             id="path22"
             style="fill:#211f1e;fill-opacity:1;fill-rule:nonzero;stroke:none"
             d="m 291.852,166.074 h 59.765 v 29.981 H 260.27 V 54.3359 h 31.796 v 52.9691 h 52.364 v 28.789 h -52.578 v 29.98" /><path
             id="path24"
             style="fill:#211f1e;fill-opacity:1;fill-rule:nonzero;stroke:none"
             d="m 401.246,79.3242 c -11.387,0 -22.383,8.1953 -22.383,24.7848 0,16.789 10.996,24.582 22.383,24.582 11.602,0 22.402,-7.793 22.402,-24.582 0,-16.7965 -10.8,-24.7848 -22.402,-24.7848 z m 0,77.3558 c -29.57,0 -52.754,-21.789 -52.754,-52.571 0,-30.7809 23.184,-52.7731 52.754,-52.7731 29.785,0 52.774,21.9922 52.774,52.7731 0,30.782 -22.989,52.571 -52.774,52.571" /><path
             id="path26"
             style="fill:#211f1e;fill-opacity:1;fill-rule:nonzero;stroke:none"
             d="M 493.062,140.293 V 153.68 H 463.668 V 54.3359 h 30.391 v 43.3789 c 0,19.7852 10.996,26.9802 23.183,26.9802 3.008,0 6.211,-0.195 9.61,-0.996 v 29.981 c -2.012,0.597 -5,0.996 -8.008,0.996 -7.989,0 -20.586,-3.192 -25.782,-14.383" /><path
             id="path28"
             style="fill:#211f1e;fill-opacity:1;fill-rule:nonzero;stroke:none"
             d="m 653.023,156.68 c -13.398,0 -22.988,-4.395 -30.8,-15.598 -4.981,9.797 -15.176,15.598 -29.375,15.598 -10.801,0 -23.594,-5.598 -28.594,-14.395 V 153.68 H 535.27 V 54.3359 h 30.39 v 57.1681 c 0,8.992 5.801,17.187 16.387,17.187 10.996,0 15.996,-7.394 15.996,-16.789 V 54.3359 h 29.98 v 57.3711 c 0,8.789 5.801,16.984 16.602,16.984 10.781,0 15.781,-7.394 15.781,-16.789 V 54.3359 h 29.395 v 64.3631 c 0,26.985 -17.989,37.981 -36.778,37.981" /><path
             id="path30"
             style="fill:#211f1e;fill-opacity:1;fill-rule:nonzero;stroke:none"
             d="m 705.465,54.3359 h 30.3906 v 99.3438 H 705.465 Z" /><path
             id="path32"
             style="fill:#211f1e;fill-opacity:1;fill-rule:nonzero;stroke:none"
             d="m 720.465,201.855 c -9.59,0 -17.598,-8 -17.598,-17.793 0,-9.796 8.008,-17.785 17.598,-17.785 10,0 17.988,7.989 17.988,17.785 0,9.793 -7.988,17.793 -17.988,17.793" /><path
             id="path34"
             style="fill:#211f1e;fill-opacity:1;fill-rule:nonzero;stroke:none"
             d="m 798.238,79.3242 c -11.797,0 -22.383,8.3906 -22.383,24.7848 0,16.594 10.586,24.582 22.383,24.582 11.797,0 22.383,-7.988 22.383,-24.582 0,-16.3942 -10.586,-24.7848 -22.383,-24.7848 z M 850.211,199.051 H 820.23 v -53.164 c -2.402,3.801 -9.804,10.195 -26.777,10.195 -28.203,0 -48.183,-22.187 -48.183,-51.777 0,-30.5862 21.191,-52.1683 49.179,-52.1683 11.992,0 21.973,5 26.582,11.7969 0,-4.0039 0.606,-8.3984 0.801,-9.5977 h 29.18 c -0.196,2.1953 -0.801,8.7969 -0.801,17.793 V 199.051" /><path
             id="path36"
             style="fill:#211f1e;fill-opacity:1;fill-rule:nonzero;stroke:none"
             d="m 920.641,93.3086 c 0,-15.3906 -9.2,-19.7852 -18.203,-19.7852 -8.379,0 -11.778,5 -11.778,10.1954 0,6.9921 4.785,9.9921 11.192,10.996 l 18.789,3 z m 29.57,24.9924 c 0,20.39 -11.777,38.379 -43.965,38.379 -29.18,0 -42.383,-18.789 -43.574,-32.981 l 26.387,-5.398 c 0.586,7.39 6.386,14.59 16.992,14.59 9.59,0 14.59,-4.993 14.59,-10.793 0,-3.399 -1.797,-5.996 -7.207,-6.797 l -23.379,-3.594 C 873.668,109.305 860.66,99.3047 860.66,81.7188 c 0,-15.793 12.598,-30.1876 34.395,-30.1876 13.183,0 22.773,5.6055 27.988,13.9961 0,-6.7968 0.781,-10.3906 0.996,-11.1914 h 27.383 c -0.195,0.9961 -1.211,7.5977 -1.211,15.3907 v 48.5744" /><path
             id="path38"
             style="fill:#211f1e;fill-opacity:1;fill-rule:nonzero;stroke:none"
             d="m 1017.83,79.3242 c -11.78,0 -22.58,8.3906 -22.58,24.7848 0,16.789 10.8,24.582 22.58,24.582 11.8,0 22.4,-7.793 22.4,-24.582 0,-16.5895 -10.6,-24.7848 -22.4,-24.7848 z m 6.6,76.7578 c -13.59,0 -24.59,-5.605 -28.789,-11.797 v 54.766 H 965.855 V 54.3359 h 29.395 v 11.1914 c 4.59,-7.5976 14.79,-13.3906 27.99,-13.3906 27.77,0 47.36,21.7891 47.36,52.1683 0,29.785 -17.38,51.777 -46.17,51.777" /><path
             id="path40"
             style="fill:#211f1e;fill-opacity:1;fill-rule:nonzero;stroke:none"
             d="m 1080.25,54.3359 h 30.3906 v 144.715 H 1080.25 Z" /><path
             id="path42"
             style="fill:#211f1e;fill-opacity:1;fill-rule:nonzero;stroke:none"
             d="m 1150.45,115.898 c 0.6,7.403 6.99,16.797 19.78,16.797 14.4,0 19.59,-9.199 20,-16.797 z m 69.16,-10.195 c 0,31.981 -18.99,50.977 -49.77,50.977 -25.8,0 -49.57,-20.391 -49.57,-52.375 0,-33.3792 24.38,-52.9691 51.76,-52.9691 25.19,0 40.98,14.3946 45.78,31.5821 l -25.39,7.1992 c -2.79,-7.793 -8.99,-13 -19.98,-13 -11.8,0 -21.99,8 -22.6,19.1914 H 1219 c 0.22,0.6055 0.61,5.2034 0.61,9.3944" /><path
             id="path44"
             style="fill:#211f1e;fill-opacity:1;fill-rule:nonzero;stroke:none"
             d="M 55.8008,253.191 0,23.6914 55.8008,91.3711 V 253.191" /><path
             id="path46"
             style="fill:#cec8c7;fill-opacity:1;fill-rule:nonzero;stroke:none"
             d="M 55.8008,253.191 184.137,133.223 55.8008,91.3711 V 253.191" /><path
             id="path48"
             style="fill:#7d7573;fill-opacity:1;fill-rule:nonzero;stroke:none"
             d="M 55.8008,0 184.137,133.223 55.8008,91.3711 V 0" /><path
             id="path50"
             style="fill:#4c4544;fill-opacity:1;fill-rule:nonzero;stroke:none"
             d="M 0,23.6914 55.8008,91.3711 V 0 L 0,23.6914" /></g></g></g></g></svg>