<?xml version="1.0" encoding="utf-8"?>
<!-- Generator: Adobe Illustrator 24.0.3, SVG Export Plug-In . SVG Version: 6.00 Build 0)  -->
<svg version="1.1" id="Layer_1" xmlns="http://www.w3.org/2000/svg" xmlns:xlink="http://www.w3.org/1999/xlink" x="0px" y="0px"
	 viewBox="0 0 868.5 481" style="enable-background:new 0 0 868.5 481;" xml:space="preserve">
<style type="text/css">
	.st0{fill:#FFFFFF;}
	.st1{fill:#FFFFFF;stroke:#000000;}
</style>
<g>
	<path class="st0" d="M512.3,118.3l25.1-43.9c0.8-1.4,0.8-3.1,0-4.5L511,23.8c0,0,0,0,0-0.1c-0.1-0.1-0.2-0.2-0.2-0.4
		c0,0-0.1-0.1-0.1-0.1c-0.1-0.1-0.2-0.3-0.3-0.4c0,0,0,0,0,0c-0.1-0.1-0.3-0.2-0.4-0.3c0,0-0.1-0.1-0.1-0.1
		c-0.1-0.1-0.2-0.2-0.3-0.2c0,0-0.1,0-0.1-0.1c-0.3-0.2-0.6-0.3-1-0.4c0,0-0.1,0-0.1,0c-0.1,0-0.3-0.1-0.4-0.1c0,0-0.1,0-0.1,0
		c-0.2,0-0.4,0-0.5,0h-149c-0.2,0-0.4,0-0.5,0c0,0-0.1,0-0.1,0c-0.1,0-0.3,0-0.4,0.1c0,0-0.1,0-0.1,0c-0.3,0.1-0.7,0.2-1,0.4
		c0,0-0.1,0-0.1,0.1c-0.1,0.1-0.2,0.1-0.3,0.2c0,0-0.1,0.1-0.1,0.1c-0.1,0.1-0.3,0.2-0.4,0.3c0,0,0,0,0,0c-0.1,0.1-0.2,0.3-0.3,0.4
		c0,0-0.1,0.1-0.1,0.1c-0.1,0.1-0.2,0.2-0.2,0.4c0,0,0,0,0,0.1l-26.4,46.1c-0.8,1.4-0.8,3.1,0,4.5l25.8,45.1v147.9
		c0,0.2,0,0.4,0,0.5c0,0,0,0.1,0,0.1c0,0.1,0,0.3,0.1,0.4c0,0,0,0.1,0,0.1c0.1,0.3,0.2,0.7,0.4,1c0,0,0,0.1,0.1,0.1
		c0.1,0.1,0.1,0.2,0.2,0.3c0,0,0.1,0.1,0.1,0.1c0.1,0.1,0.2,0.3,0.3,0.4c0,0,0,0,0,0c0.1,0.1,0.3,0.2,0.4,0.3c0,0,0.1,0.1,0.1,0.1
		c0.1,0.1,0.2,0.2,0.4,0.2c0,0,0,0,0.1,0l46.1,26.4c0.7,0.4,1.5,0.6,2.2,0.6c0.8,0,1.5-0.2,2.2-0.6l46.1-26.4c0,0,0,0,0.1,0
		c0.1-0.1,0.2-0.2,0.4-0.2c0,0,0.1-0.1,0.1-0.1c0.1-0.1,0.3-0.2,0.4-0.3c0,0,0,0,0,0c0.1-0.1,0.2-0.3,0.3-0.4c0,0,0.1-0.1,0.1-0.1
		c0.1-0.1,0.2-0.2,0.2-0.3c0,0,0-0.1,0.1-0.1c0.2-0.3,0.3-0.6,0.4-1c0,0,0-0.1,0-0.1c0-0.1,0.1-0.3,0.1-0.4c0,0,0-0.1,0-0.1
		c0-0.2,0-0.4,0-0.5V215h52.3c0.2,0,0.4,0,0.5,0c0,0,0.1,0,0.1,0c0.1,0,0.3,0,0.4-0.1c0,0,0.1,0,0.1,0c0.3-0.1,0.7-0.2,1-0.4
		c0,0,0.1,0,0.1-0.1c0.1-0.1,0.2-0.1,0.3-0.2c0,0,0.1-0.1,0.1-0.1c0.1-0.1,0.3-0.2,0.4-0.3c0,0,0,0,0,0c0.1-0.1,0.2-0.2,0.3-0.4
		c0,0,0.1-0.1,0.1-0.1c0.1-0.1,0.2-0.2,0.2-0.4c0,0,0,0,0-0.1l26.4-46.1c0.8-1.4,0.8-3.1,0-4.5L512.3,118.3z M478.1,159.9h-73.7
		c-1.1-0.1-2.2,0.3-3.1,1c0,0-0.1,0.1-0.1,0.1c-0.1,0.1-0.1,0.1-0.2,0.2c0,0,0,0,0,0c-0.8,0.8-1.3,1.9-1.3,3.2v74l-37.2,21.3V122.7
		h136.8L478.1,159.9z M445.9,259.7l-37.2-21.3v-63.2l37.2,37.2V259.7z M478.1,67.6h-91l-21.3-37.2h133.6L478.1,67.6z M387.1,76.6h91
		l21.3,37.2H365.8L387.1,76.6z M507.1,109.2l-21.2-37.1L507.1,35l21.2,37.1L507.1,109.2z M358.1,35l21.2,37.1l-21.2,37.1l-21.2-37.1
		L358.1,35z M404.2,288.6l-37.1-21.2l37.1-21.2l37.1,21.2L404.2,288.6z M452.2,206.1L415,168.9h63.1l21.3,37.2H452.2z M507.1,201.5
		l-21.2-37.1l21.2-37.1l21.2,37.1L507.1,201.5z"/>
	<g>
		<g>
			<path class="st0" d="M12.6,343.1c0-2.4,1-3.4,3.4-3.4h73.2c2.4,0,3.4,1,3.4,3.4v10.8c0,1.7-0.7,2.4-2.4,2.4h-59v33.2H78
				c2.4,0,3.4,1,3.4,3.4v9.8c0,2.4-1,3.4-3.4,3.4H31.1v48.4c0,2.4-1,3.4-3.4,3.4H15.9c-2.4,0-3.4-1-3.4-3.4V343.1z"/>
			<path class="st0" d="M91.3,418.1c0-25.5,17.4-41.3,41.3-41.3c23.9,0,41.3,15.8,41.3,41.3c0,27.3-18.9,41.3-41.3,41.3
				C110.2,459.4,91.3,445.5,91.3,418.1z M156,418.3c0-17-10.5-26.6-23.4-26.6c-13,0-23.4,9.6-23.4,26.6c0,15.5,8.8,26.3,23.4,26.3
				C147.3,444.6,156,433.8,156,418.3z"/>
			<path class="st0" d="M188.1,381.9c0-2.4,1-3.4,3.4-3.4h10.5c2.4,0,3.4,1,3.4,3.4v7.1c5.6-7.1,14-12.1,25.6-12.1
				c15.2,0,24.6,9.3,24.6,23.4c0,2.4-1.2,3.4-3.4,3.4h-10.6c-1.9,0-2.5-0.7-2.7-2.7c-0.7-5.7-4.2-9.3-11.5-9.3
				c-6.7,0-12.5,4.6-16.2,9.8c-3.7,5.2-5.9,11.6-5.9,21.7v31.2c0,2.4-1,3.4-3.4,3.4h-10.5c-2.4,0-3.4-1-3.4-3.4V381.9z"/>
			<path class="st0" d="M267,381.9c0-2.4,1-3.4,3.4-3.4h10.5c2.4,0,3.4,1,3.4,3.4v7.2c5.4-7.6,12.3-12.3,23.4-12.3
				c10.1,0,17,4,20.1,11.1c5.4-6.4,13.7-11.1,25.5-11.1c14,0,23.8,7.6,23.8,23.4v54.1c0,2.4-1,3.4-3.4,3.4H363c-2.4,0-3.4-1-3.4-3.4
				v-51.8c0-7.1-3-11-9.9-11c-5.1,0-9.8,2.4-13.8,7.2c-4.2,5.1-6.1,9.8-6.1,18.2v37.3c0,2.4-1,3.4-3.4,3.4H316c-2.4,0-3.4-1-3.4-3.4
				v-51.9c0-7.1-3-10.8-9.9-10.8c-4.7,0-9.6,2.7-13.1,7.2c-3.5,4.6-5.4,7.9-5.4,16.7v38.8c0,2.4-1,3.4-3.4,3.4h-10.5
				c-2.4,0-3.4-1-3.4-3.4V381.9z"/>
			<path class="st0" d="M404,342.8c6.4,0,11.5,5.1,11.5,11.5c0,6.4-5.1,11.5-11.5,11.5c-6.4,0-11.5-5.1-11.5-11.5
				C392.5,347.8,397.6,342.8,404,342.8z M395.4,381.9c0-2.4,1-3.4,3.4-3.4h10.5c2.4,0,3.4,1,3.4,3.4v72.5c0,2.4-1,3.4-3.4,3.4h-10.5
				c-2.4,0-3.4-1-3.4-3.4V381.9z"/>
			<path class="st0" d="M491.2,450.8c-6.6,5.6-12.3,8.6-24.4,8.6c-19.9,0-36.6-13.8-36.6-41.3c0-26,17.7-41.3,38.6-41.3
				c9.9,0,17.5,3.2,22.4,8.4v-45.5c0-2.4,1-3.4,3.4-3.4H505c2.4,0,3.4,1,3.4,3.4v114.6c0,2.4-1,3.4-3.2,3.4h-8.3
				c-2.4,0-3.5-0.8-4.4-3.4L491.2,450.8z M491.2,411.6c0-5.2-1-8.6-4.6-12.5c-3.7-4.2-9.3-7.4-16.2-7.4c-12.8,0-22.4,10.1-22.4,26.6
				c0,15.2,8.6,26.3,22.3,26.3c7.6,0,13.5-3.2,16.9-7.6c3.2-4,4-7.6,4-13.1V411.6z"/>
			<path class="st0" d="M589,450c-6.6,6.2-13,9.4-25.1,9.4c-21.4,0-39.4-13.8-39.4-41.3c0-26,18.2-41.3,40.5-41.3
				c12,0,19.9,4.2,24.1,9.3v-4.2c0-2.4,1-3.4,3.4-3.4h10.5c2.4,0,3.4,1,3.4,3.4v72.5c0,2.4-1,3.4-3.4,3.4h-8.3
				c-2.2,0-3.5-0.8-4.2-3.4L589,450z M589,410.9c0-5.1-1.2-8.4-4.9-12.3c-3.5-3.5-9.3-6.9-17.2-6.9c-14,0-24.6,9.9-24.6,26.6
				c0,16.2,10.1,26.3,24.3,26.3c8.8,0,15-4.2,18.5-8.6c2.9-3.9,3.9-7.2,3.9-12.6V410.9z"/>
			<path class="st0" d="M624.9,339.8c0-2.4,1-3.4,3.4-3.4h10.5c2.4,0,3.4,1,3.4,3.4v50.6c6.2-7.4,16.2-13.5,28-13.5
				c22.8,0,34.7,15.3,34.7,41c0,23.8-14.3,41.6-39.1,41.6c-9.8,0-17.2-2.5-23.6-6.7v1.7c0,2.4-1,3.4-3.4,3.4h-10.5
				c-2.4,0-3.4-1-3.4-3.4V339.8z M642.1,431.1c0,4,2,6.1,4.4,7.9c5.1,3.7,11.1,5.6,17,5.6c15.2,0,23.4-11.6,23.4-26.6
				c0-17.5-8.8-26.3-20.2-26.3c-11,0-17.7,7.4-21.2,13.3c-2,3.5-3.4,6.6-3.4,12.6V431.1z"/>
			<path class="st0" d="M719.4,339.8c0-2.4,1-3.4,3.4-3.4h10.5c2.4,0,3.4,1,3.4,3.4v96.4c0,6.1,2.7,8.4,6.6,8.4
				c3.7,0,5.4-1.7,7.1-1.7c1,0,1.7,0.8,1.7,2.2v10.1c0,1.5-0.7,2.2-1.7,2.5c-2.7,1-7.6,1.7-11.6,1.7c-9.3,0-19.2-5.4-19.2-19.2
				V339.8z"/>
			<path class="st0" d="M835.1,440.9c0.5,0.5,0.8,1.2,0.8,1.9c0,0.7-0.3,1.3-1,2c-11,11-19.1,14.7-34.6,14.7
				c-21.1,0-41.1-14.7-41.1-41.3c0-25.1,18.2-41.3,40.5-41.3c27,0,39.4,20.9,39.4,40.1v3.4c0,2.4-1,3.4-3.4,3.4h-59.3
				c2.2,12.8,11.3,20.9,24.8,20.9c11.1,0,17.2-4.2,22.4-10.1c0.8-1,1.5-1.5,2.5-1.5c0.7,0,1.3,0.3,2.2,1.2L835.1,440.9z M822,409.5
				c-2.9-12.3-12-17.9-21.9-17.9c-10.8,0-20.9,6.6-23.6,17.9H822z"/>
		</g>
		<circle class="st1" cx="852.6" cy="382.5" r="4.4"/>
		<path class="st0" d="M852.3,382.1c0.3,0,0.5-0.1,0.6-0.2c0.1-0.1,0.2-0.3,0.2-0.5c0-0.2-0.1-0.4-0.2-0.5c-0.1-0.1-0.3-0.1-0.6-0.1
			h-0.6v1.3H852.3 M851.8,383v2h-1.3v-5.2h2c0.7,0,1.2,0.1,1.5,0.3c0.3,0.2,0.5,0.6,0.5,1.1c0,0.3-0.1,0.6-0.2,0.8
			c-0.2,0.2-0.4,0.4-0.7,0.5c0.2,0,0.3,0.1,0.5,0.3s0.3,0.4,0.4,0.7l0.7,1.5h-1.4l-0.6-1.3c-0.1-0.3-0.3-0.4-0.4-0.5
			c-0.1-0.1-0.3-0.1-0.5-0.1H851.8"/>
	</g>
</g>
</svg>
