<svg xmlns="http://www.w3.org/2000/svg" viewBox="0 0 250 250" fill="none" role="img" aria-labelledby="spectacle-title"><title id="spectacle-title">Spectacle</title><path fill-rule="evenodd" d="M142.615 3.777l81.655 36.664C239.917 47.466 250 63.133 250 80.422v89.156c0 17.288-10.083 32.956-25.73 39.982l-81.655 36.664a43.01 43.01 0 0 1-35.23 0L25.73 209.56C10.083 202.534 0 186.867 0 169.579V80.421c0-17.288 10.083-32.955 25.73-39.981l81.654-36.664A43 43 0 0 1 125 0c6.069 0 12.07 1.287 17.615 3.777z" fill="#202020"/><g stroke="#fc6986" stroke-width="10"><path class="inner-ring" opacity=".5" d="M138.468 17.886a32.9 32.9 0 0 0-26.936 0L32 53.564C21.664 58.2 15 68.567 15 80.009v89.982c0 11.442 6.664 21.808 17 26.445l79.532 35.678a32.89 32.89 0 0 0 26.936 0L218 196.436c10.336-4.637 17-15.003 17-26.445V80.009c0-11.442-6.664-21.808-17-26.445l-79.532-35.678z"/><path class="outer-ring" d="M140.582 8.342A38.03 38.03 0 0 0 124.999 5a38.02 38.02 0 0 0-15.583 3.342L27.761 45.021C13.92 51.239 5 65.104 5 80.403v89.194c0 15.299 8.92 29.164 22.761 35.382l81.654 36.679c4.906 2.203 10.215 3.342 15.584 3.342s10.677-1.139 15.583-3.342l81.654-36.679c13.842-6.218 22.761-20.083 22.761-35.382V80.404c0-15.3-8.919-29.165-22.761-35.383L140.582 8.342z"/></g><g fill-rule="evenodd"><path d="M119.798 178.067l-54.495-53.455c-6.671-6.543-5.893-17.611 1.625-23.128s18.125-2.805 22.166 5.668l33.009 69.223c.703 1.474-1.145 2.83-2.306 1.692" fill="#f14e74"/><path d="M122.094 176.361l-33.067-69.193c-4.048-8.47.432-18.592 9.361-21.153s17.971 3.683 18.896 13.049l7.55 76.512c.161 1.63-2.034 2.259-2.738.785" fill="#fc6986"/><path d="M118.181 180.434l-69.306-31.156c-8.483-3.815-11.51-14.477-6.324-22.282s16.065-8.963 22.734-2.419l54.486 53.463c1.16 1.139-.114 3.058-1.59 2.394" fill="#e13e65"/><path d="M42.029 127.902c.371-.768 3.277-6.25 11.242-7.597 3.613-.611 8.792.584 13.118 5.401l50.166 49.127.361 2.115-49.468-39.261s-7.863-6.221-16.857-.391l-.021-.024c-1.009.637-2.176.975-3.366.976-3.543 0-6.416-2.914-6.416-6.508 0-1.437.465-2.761 1.242-3.838z" fill="#fc6986"/><g fill="#ff92ac"><path d="M65.964 102.183c.608-.594 5.184-4.74 13.124-3.25 3.602.676 8.067 3.593 10.514 9.618l30.604 63.815-.372 2.114-33.269-54.301s-5.298-8.57-15.713-6.203l-.012-.03a6.29 6.29 0 0 1-3.492-.247c-3.33-1.227-5.05-4.96-3.841-8.339a6.46 6.46 0 0 1 2.458-3.177zM97.333 86.42c.772-.346 6.476-2.641 13.425 1.531 3.152 1.892 6.354 6.189 6.607 12.701l7.076 70.602-1.065 1.853-12.808-62.598s-2.067-9.896-12.648-11.31l-.002-.032a6.33 6.33 0 0 1-3.194-1.453c-2.71-2.314-3.059-6.419-.777-9.169.875-1.055 2.062-1.8 3.387-2.124z"/><path d="M116.379 95.174l-.517 67.928s2.049 15.239 4.6 18.374l-11.954-5.36c-4.515-3.878-3.33-12.528-3.33-12.528l11.201-68.414z"/></g><path d="M125.298 182.245c-8.91 0-16.133-7.326-16.133-16.363l9.383-91.709c.359-3.508 3.274-6.173 6.751-6.173s6.391 2.665 6.75 6.173l9.382 91.709c0 9.037-7.223 16.363-16.132 16.363" fill="#e13e65"/><path d="M120.617 83.653l4.701 8.406 4.724-8.298" fill="#ff92ac"/><path d="M132.064 74.839c0 3.777-1.422 12.257-6.742 12.257-5.097 0-6.743-8.48-6.743-12.257S121.599 68 125.322 68s6.743 3.062 6.743 6.839h-.001zm20.47 11.177c-7.797-2.237-15.68 2.243-18.168 9.651l8.372 51.59 19.157-40.086c4.048-8.47-.432-18.594-9.361-21.154zm-26.905 84.371c-.554-.07-9.051-1.315-8.844-11.419l1.814-45.454c.248-6.222-.488-12.445-2.181-18.433l-7.234 70.81c-.034.346-.022.695.038 1.037.187 2.556 1.28 9.231 7.537 12.9 2.115 1.24 4.879 2.383 8.282 2.412l.001-.013c.054.002.106.008.161.008 3.231 0 5.85-2.656 5.85-5.935 0-3.131-2.392-5.691-5.425-5.913" fill="#fc6986"/><path d="M111.145 113.219s1.141 7.038-.143 14.944l1.283-4.049 1.236-9.642-2.376-1.253zm45.822-24.675a6.36 6.36 0 0 0-3.386-2.124c-.772-.346-6.476-2.641-13.425 1.53-2.279 1.369-4.579 4.001-5.776 7.813l3.973 24.487 1.993-9.742s2.067-9.896 12.649-11.31l.002-.032a6.33 6.33 0 0 0 3.193-1.453c2.711-2.314 3.059-6.42.777-9.169z" fill="#ff92ac"/><path d="M183.978 101.484c-7.518-5.517-18.125-2.804-22.165 5.668l-19.103 40.06 2.691 16.582a7.4 7.4 0 0 0 .029.224l40.173-39.406c6.671-6.543 5.893-17.611-1.625-23.128z" fill="#f14e74"/><path d="M187.427 105.361a6.46 6.46 0 0 0-2.459-3.177c-.608-.595-5.184-4.742-13.124-3.251-3.601.676-8.067 3.593-10.513 9.618l-18.573 38.728 1.049 6.46 20.56-33.559s5.299-8.571 15.714-6.204l.012-.029c1.128.238 2.33.18 3.492-.249 3.331-1.226 5.051-4.959 3.842-8.337z" fill="#ff92ac"/><path d="M208.387 126.996c-5.186-7.806-16.065-8.963-22.735-2.419l-40.201 39.447c.164 1.377.813 8.651-3.242 12.161l59.854-26.907c8.483-3.815 11.51-14.477 6.324-22.282z" fill="#e13e65"/><path d="M208.918 127.903c-.372-.769-3.278-6.251-11.243-7.598-3.613-.612-8.791.585-13.118 5.401l-39.103 38.31c.064.539.205 2.012.101 3.812l37.944-30.141s7.864-6.222 16.857-.391l.022-.023c1.009.637 2.176.975 3.366.975 3.543 0 6.416-2.914 6.416-6.508a6.53 6.53 0 0 0-1.243-3.837" fill="#fc6986"/></g></svg>