<svg id="Layer_1" data-name="Layer 1" xmlns="http://www.w3.org/2000/svg" viewBox="0 0 500 500"><defs><style>.cls-1{fill:#0a0a0a;}.cls-2{fill:#202122;}.cls-3{fill:#3d4247;}.cls-4{fill:#576064;}.cls-5{fill:#fc6986;}.cls-6{fill:#fff;}</style></defs><title>newspec</title><rect class="cls-1" width="500" height="500" rx="57.39"/><path class="cls-2" d="M377.53,0H122.47A281.72,281.72,0,0,0,0,122.47V377.53A281.72,281.72,0,0,0,122.47,500H377.53A281.72,281.72,0,0,0,500,377.53V122.47A281.72,281.72,0,0,0,377.53,0Z"/><circle class="cls-3" cx="250" cy="250" r="205"/><circle class="cls-4" cx="250" cy="250" r="129.41"/><path class="cls-5" d="M449,191.82l3.42-1.71a1.06,1.06,0,0,0,.49-1.39l-1.61-3.47a23.09,23.09,0,0,0-5.74-7.9h0l-9.17-9.15a19.71,19.71,0,0,0-1.89-1.88l-.2-.2h0A17.94,17.94,0,0,0,429,163a21.54,21.54,0,0,0-7.58-1.29,34.17,34.17,0,0,0-8.78,1.26,39.44,39.44,0,0,0-21.82,14.9c-.59.79-1.14,1.59-1.67,2.4a1.06,1.06,0,0,1-1.64.19l-7.15-7.16a1.07,1.07,0,0,0-1-.27l-5.71,1.53-10.29,2.76-2.93.78a1.05,1.05,0,0,0-.78,1v21.17a1.05,1.05,0,0,1-1.9.63l-3-4-2-2.65-.1-.12-10.54-10.54a1,1,0,0,0-1-.27l-2.68.72-11.26,3-2.92.79a1,1,0,0,0-.79,1v4.31a1.06,1.06,0,0,1-1.8.75l-3.82-3.82a1,1,0,0,0-1-.27l-5.71,1.52-10.29,2.76-2.93.79a1.05,1.05,0,0,0-.78,1v4l-3.36-3.36a1.06,1.06,0,0,0-1-.27l-5.7,1.53-42.85,11.48-2.92.78a1.07,1.07,0,0,0-.79,1V229.6a1.1,1.1,0,0,0,.31.75l10.29,10.29a1,1,0,0,0,1,.27l1.19-.31-8.72,13.47a1.05,1.05,0,0,1-1.88-.22l-8.35-23.2-1.48-4.1a1,1,0,0,0-.25-.39l-10.42-10.43a1.08,1.08,0,0,0-1-.27l-3.85,1L204.37,220l-2.1.56a1.08,1.08,0,0,0-.74.71l-.64,2.07L194.43,244a1.05,1.05,0,0,1-2.06-.32h0v-6.07a1.06,1.06,0,0,0-.31-.75l-10.29-10.29a1.06,1.06,0,0,0-1-.27l-5.7,1.53-14.23,3.81-1.88.51a1.06,1.06,0,0,0-.71.61l-.74,1.81-8.32,20.27a1.05,1.05,0,0,1-1.91.09l-.76-1.44-1.79-3.39a1.51,1.51,0,0,0-.18-.26L134,239.34a1,1,0,0,0-1-.27l-3.27.87-14.74,4-2.93.78a1.05,1.05,0,0,0-.78,1v35.9a1.06,1.06,0,0,1-2,.36l-5.84-16.23-1.48-4.11a1,1,0,0,0-.25-.38L91.26,250.81a1.09,1.09,0,0,0-1-.28l-3.85,1L73.47,255l-2.1.56a1.06,1.06,0,0,0-.74.7L70,258.37,50.7,320.17l-2.51,8.06a1,1,0,0,0,.26,1.06l7.2,7.2a8.24,8.24,0,0,0,8,2.14l4.17-1.11,10.9-2.93,2.12-.56a1.05,1.05,0,0,0,.74-.72l.64-2.1,3-10.07a1,1,0,0,1,.73-.71l7-1.88a1.07,1.07,0,0,1,1,.28l9.24,9.24V328l4.44-1.19,10.91-2.92,3.74-1h0l6.29-1.69,10.3-2.76,2.92-.78a1.07,1.07,0,0,0,.78-1V302.5a1.06,1.06,0,0,1,1.81-.75l7.08,7.08,0,.05h0l3.94-1.06,6.72-1.8,1.93-.51a1.1,1.1,0,0,0,.71-.64l.08-.22a1.05,1.05,0,0,1,1.73-.36l4.88,4.88a1,1,0,0,0,1,.27l5.71-1.53,10.38-2.78,1.26-.34h0l8.78-2.35,10.9-2.92,2.12-.57a1,1,0,0,0,.74-.71l.64-2.1,3-10.07a1.06,1.06,0,0,1,.73-.72l7-1.87a1.08,1.08,0,0,1,1,.27l9.24,9.25V293l4.44-1.19,10.91-2.93,2-.53,3.09-.83.17,0,3-.82,42.84-11.48,2.93-.78a1.06,1.06,0,0,0,.78-1v-4l3.36,3.36a1.06,1.06,0,0,0,1,.28l5.7-1.53,10.3-2.76,2.92-.79a1.06,1.06,0,0,0,.79-1v-4.31a1.06,1.06,0,0,1,1.8-.75l3.82,3.82a1,1,0,0,0,1,.27l5.7-1.52,10.3-2.76,2.92-.79a1,1,0,0,0,.79-1V237.36a1.05,1.05,0,0,1,1.9-.63l3.8,5.11,2,2.67.1.12,10.54,10.54a1.07,1.07,0,0,0,1,.27l2.7-.72,10.47-2.81,2.92-.78a1.05,1.05,0,0,0,.78-1V230.8a1.06,1.06,0,0,1,1.79-.76L401,237.8c.34.35.7.69,1.07,1a21.13,21.13,0,0,0,14.52,5.49,29.65,29.65,0,0,0,7.64-1.07,24.29,24.29,0,0,0,9.53-4.9l.14,1.09,11.14-3a8.73,8.73,0,0,0,6.46-8.43V195.65a1.06,1.06,0,0,0-.31-.75l-2.79-2.78ZM295.29,245.34l-1.56-1.56a1.06,1.06,0,0,0-1-.27l-1.19.31,3.63-5.62a1.05,1.05,0,0,1,1.94.57v5.82A1.06,1.06,0,0,1,295.29,245.34Zm123.57-38.11a10.78,10.78,0,0,1-.88,1.28,12.61,12.61,0,0,1-1.78,1.86,1.06,1.06,0,0,1-1.72-.93c0-.22,0-.43.08-.64a1,1,0,0,1,.79-.88l3.51-.87Z"/><path class="cls-6" d="M74.76,259.86l12.92-3.46,18.58,51.65L95.36,311l-3.93-11.16-21,5.63-4,13.3-10.9,2.92ZM73,297l15.88-4.26L81,270.48Z"/><path class="cls-6" d="M131.05,244.77l15.53,29.53,15.54-37.85,14.22-3.81v56.64L166,292.06V249l-16,41.13L143.18,292,126.6,258.36V302.6l-10.3,2.76V248.73Z"/><path class="cls-6" d="M205.66,224.78l12.92-3.46L237.16,273l-10.9,2.92-3.93-11.17-21,5.64-4,13.29-10.9,2.93Zm-1.74,37.12,15.88-4.25-7.86-22.25Z"/><path class="cls-6" d="M245.45,261.85l29.94-46.24-29.94,7.93v-9.42l42.85-11.48v8.81l-29.84,46.31,29.84-7.91v9.42l-42.85,11.49Z"/><path class="cls-6" d="M302.09,198.94l10.3-2.76v56.64l-10.3,2.76Z"/><path class="cls-6" d="M339.7,188.87l25,33.45V182.18l10.3-2.76v56.64l-10.47,2.8-25.75-34.64v41.54l-10.3,2.76V191.88Z"/><path class="cls-6" d="M425.92,213.41q-3.66,11.19-14.05,14-10.65,2.85-17.54-3.33-7.15-6.37-7.15-19.29a38.83,38.83,0,0,1,7.67-23.88A34.47,34.47,0,0,1,414,167.83q7.93-2.13,13.3-.12t8.43,8.61l-10.56,5.27q-4.63-6.17-11.7-4.28Q407,179,402.71,185.68a28.68,28.68,0,0,0-4.45,16.12q0,8.82,4,13.24t10.48,2.6a17,17,0,0,0,9.16-6,17.28,17.28,0,0,0,3.66-11v-.35l-12.74,3.15v-6.63l22.6-6.06v29.15l-8.37,2.25Z"/></svg>