<svg id="Layer_1" data-name="Layer 1" xmlns="http://www.w3.org/2000/svg" viewBox="0 0 500 500"><defs><style>.cls-1{fill:#3d4247;}.cls-2{fill:#202122;}.cls-3{fill:#fc6986;}.cls-4{fill:#b95367;}.cls-5{fill:#fff;}</style></defs><title>button</title><rect class="cls-1" width="500" height="500" rx="57.39"/><rect class="cls-2" x="147.79" y="231.26" width="204.43" height="67.78" rx="13.45"/><rect class="cls-3" x="147.79" y="223.81" width="204.43" height="67.78" rx="13.45"/><path class="cls-4" d="M219,251.67a10,10,0,0,1,3.12.44,7.09,7.09,0,0,1,2.28,1.21,7.17,7.17,0,0,1,2.46,4.29l-3.78.69a5.61,5.61,0,0,0-1.48-2.47,3.53,3.53,0,0,0-2.51-1,3.91,3.91,0,0,0-3.3,1.71,8.63,8.63,0,0,0-1.35,5.15,9.36,9.36,0,0,0,1.2,5.13,3.71,3.71,0,0,0,3.27,1.84,4.35,4.35,0,0,0,3.12-1,3.44,3.44,0,0,0,1.05-2.6h3.81a6.3,6.3,0,0,1-2.08,5.06,8.52,8.52,0,0,1-5.72,1.78,7.63,7.63,0,0,1-6.15-2.7,11.32,11.32,0,0,1-2.31-7.5q0-4.8,2.37-7.5A7.62,7.62,0,0,1,219,251.67Z"/><path class="cls-4" d="M234.55,268.44h8v3.09H231V252.06h3.54Z"/><path class="cls-4" d="M245.83,252.06h3.54v19.47h-3.54Z"/><path class="cls-4" d="M261.94,251.67a10,10,0,0,1,3.12.44,7.09,7.09,0,0,1,2.28,1.21,7.17,7.17,0,0,1,2.46,4.29l-3.78.69a5.62,5.62,0,0,0-1.49-2.47,3.51,3.51,0,0,0-2.5-1,3.91,3.91,0,0,0-3.3,1.71,8.63,8.63,0,0,0-1.35,5.15,9.36,9.36,0,0,0,1.2,5.13,3.71,3.71,0,0,0,3.27,1.84,4.35,4.35,0,0,0,3.12-1,3.44,3.44,0,0,0,1-2.6h3.81a6.31,6.31,0,0,1-2.09,5.06A8.49,8.49,0,0,1,262,272a7.63,7.63,0,0,1-6.15-2.7,11.32,11.32,0,0,1-2.31-7.5q0-4.8,2.37-7.5A7.62,7.62,0,0,1,261.94,251.67Z"/><path class="cls-4" d="M277.54,252.06v8l7.68-8h4.86l-8.58,8.76,9.15,10.71h-4.59l-6.93-8.25-1.59,1.62v6.63H274V252.06Z"/><path class="cls-5" d="M219,248.53a10,10,0,0,1,3.12.43,6.85,6.85,0,0,1,4.74,5.51l-3.78.69a5.64,5.64,0,0,0-1.48-2.48,3.52,3.52,0,0,0-2.51-.94,3.91,3.91,0,0,0-3.3,1.71,8.6,8.6,0,0,0-1.35,5.14,9.36,9.36,0,0,0,1.2,5.13,3.72,3.72,0,0,0,3.27,1.85,4.35,4.35,0,0,0,3.12-1,3.42,3.42,0,0,0,1.05-2.59h3.81a6.28,6.28,0,0,1-2.08,5,8.52,8.52,0,0,1-5.72,1.79,7.63,7.63,0,0,1-6.15-2.7,11.32,11.32,0,0,1-2.31-7.5q0-4.8,2.37-7.5A7.62,7.62,0,0,1,219,248.53Z"/><path class="cls-5" d="M234.55,265.3h8v3.09H231V248.92h3.54Z"/><path class="cls-5" d="M245.83,248.92h3.54v19.47h-3.54Z"/><path class="cls-5" d="M261.94,248.53a10,10,0,0,1,3.12.43,6.85,6.85,0,0,1,4.74,5.51l-3.78.69a5.66,5.66,0,0,0-1.49-2.48,3.5,3.5,0,0,0-2.5-.94,3.91,3.91,0,0,0-3.3,1.71,8.6,8.6,0,0,0-1.35,5.14,9.36,9.36,0,0,0,1.2,5.13,3.72,3.72,0,0,0,3.27,1.85,4.35,4.35,0,0,0,3.12-1,3.42,3.42,0,0,0,1-2.59h3.81a6.28,6.28,0,0,1-2.09,5,8.49,8.49,0,0,1-5.71,1.79,7.63,7.63,0,0,1-6.15-2.7,11.32,11.32,0,0,1-2.31-7.5q0-4.8,2.37-7.5A7.62,7.62,0,0,1,261.94,248.53Z"/><path class="cls-5" d="M277.54,248.92v8l7.68-8h4.86l-8.58,8.76,9.15,10.71h-4.59l-6.93-8.25-1.59,1.62v6.63H274V248.92Z"/><polygon class="cls-2" points="250.97 290.09 250.97 341.39 262.4 330.59 270.02 347.86 278.78 344.05 271.39 326.88 286.94 326.13 250.97 290.09"/><polygon class="cls-5" points="250.97 279.1 250.97 330.4 262.4 319.61 270.02 336.88 278.78 333.07 271.39 315.9 286.94 315.15 250.97 279.1"/></svg>