<svg id="Layer_1" data-name="Layer 1" xmlns="http://www.w3.org/2000/svg" viewBox="0 0 500 500"><defs><style>.cls-1{fill:#3d4247;}.cls-2{fill:#e799f3;}.cls-3{fill:#f89e10;}.cls-4{fill:#8bc3ee;}.cls-5{fill:#53c1a9;}.cls-6{fill:#e47171;}.cls-7{fill:#fff;}.cls-8{fill:#fc6986;}.cls-9{fill:#b95367;}</style></defs><title>code-preview</title><path class="cls-1" d="M182.39-125H375a0,0,0,0,1,0,0V375a0,0,0,0,1,0,0H182.39A57.39,57.39,0,0,1,125,317.61V-67.61A57.39,57.39,0,0,1,182.39-125Z" transform="translate(375 -125) rotate(90)"/><path class="cls-2" d="M54.12-6.45A6.3,6.3,0,0,1,56.6-6a5.74,5.74,0,0,1,1.84,1.22,5.86,5.86,0,0,1,1.77,3.63L56.64-1a3.27,3.27,0,0,0-.88-1.59,2.08,2.08,0,0,0-1.49-.63A3.67,3.67,0,0,0,52.83-3a2.78,2.78,0,0,0-1,.8,5.38,5.38,0,0,0-1,3.48,5,5,0,0,0,1,3.34,3,3,0,0,0,2.33,1.13,2.63,2.63,0,0,0,2-.65,2.42,2.42,0,0,0,.61-1.75h3.57a5.41,5.41,0,0,1-1.59,4,6.12,6.12,0,0,1-4.53,1.62,6.33,6.33,0,0,1-4.83-2.1,8,8,0,0,1-2.07-5.61,7.79,7.79,0,0,1,2.07-5.67A6.49,6.49,0,0,1,54.12-6.45Z"/><path class="cls-2" d="M64.47-12.06H68V8.52H64.47Z"/><path class="cls-2" d="M78.39,0a16.84,16.84,0,0,1,4,.57V-.87a3.5,3.5,0,0,0-.61-2.27,2.48,2.48,0,0,0-2-.73,3.58,3.58,0,0,0-2.15.55,1.85,1.85,0,0,0-.75,1.58H73a3.94,3.94,0,0,1,1.76-3.6,9.14,9.14,0,0,1,4.9-1.11q4.5,0,5.82,3.15A6.6,6.6,0,0,1,86-.75V8.52H82.86l-.27-1.95a4.69,4.69,0,0,1-4.32,2.37,6.39,6.39,0,0,1-4.38-1.38,4.35,4.35,0,0,1-1.44-3.35A3.56,3.56,0,0,1,74,1.09,7.57,7.57,0,0,1,78.39,0Zm4,2.82a12.65,12.65,0,0,0-3.3-.48q-2.88,0-2.88,1.92a1.79,1.79,0,0,0,.66,1.39A3.16,3.16,0,0,0,79,6.24a3.2,3.2,0,0,0,2.4-1A3.58,3.58,0,0,0,82.41,2.82Z"/><path class="cls-2" d="M93.09,4.08q.06,2.07,3,2.07A3.31,3.31,0,0,0,98,5.65a1.39,1.39,0,0,0,.73-1.15,1.23,1.23,0,0,0-.45-1,4.43,4.43,0,0,0-1.41-.66L93.69,1.68q-3.54-1.23-3.54-4a3.46,3.46,0,0,1,1.67-3,7.87,7.87,0,0,1,4.47-1.12,6.7,6.7,0,0,1,4.32,1.23,4,4,0,0,1,1.57,3.09H98.85a1.46,1.46,0,0,0-.69-1.14,3.24,3.24,0,0,0-1.8-.42,3,3,0,0,0-1.81.46,1.33,1.33,0,0,0-.65,1.07q0,1.05,1.77,1.56L99.12.69a6.86,6.86,0,0,1,2.63,1.45,3.06,3.06,0,0,1,.91,2.3A3.86,3.86,0,0,1,101,7.56a7.4,7.4,0,0,1-4.68,1.38,7.84,7.84,0,0,1-4.68-1.28,4.23,4.23,0,0,1-1.8-3.58Z"/><path class="cls-2" d="M108.9,4.08q.06,2.07,3,2.07a3.31,3.31,0,0,0,1.88-.5,1.39,1.39,0,0,0,.73-1.15,1.23,1.23,0,0,0-.45-1,4.43,4.43,0,0,0-1.41-.66L109.5,1.68Q106,.45,106-2.34a3.46,3.46,0,0,1,1.67-3,7.87,7.87,0,0,1,4.47-1.12,6.7,6.7,0,0,1,4.32,1.23A4,4,0,0,1,118-2.13h-3.33A1.46,1.46,0,0,0,114-3.27a3.24,3.24,0,0,0-1.8-.42,3,3,0,0,0-1.81.46,1.33,1.33,0,0,0-.65,1.07q0,1.05,1.77,1.56L114.93.69a6.86,6.86,0,0,1,2.63,1.45,3.06,3.06,0,0,1,.91,2.3,3.86,3.86,0,0,1-1.71,3.12,7.4,7.4,0,0,1-4.68,1.38,7.84,7.84,0,0,1-4.68-1.28,4.23,4.23,0,0,1-1.8-3.58Z"/><path class="cls-3" d="M126.27-10.95v8.13h8.49v-8.13h3.54V8.52h-3.54V.27h-8.49V8.52h-3.54V-10.95Z"/><path class="cls-3" d="M155.21-2.1a8.13,8.13,0,0,1,.37,2.31,13.45,13.45,0,0,1-.12,1.89H146A5.07,5.07,0,0,0,146.91,5a2.85,2.85,0,0,0,2.46,1.11A2.34,2.34,0,0,0,152,4.17h3.57a5.23,5.23,0,0,1-2,3.45,6.62,6.62,0,0,1-4.17,1.32,6.33,6.33,0,0,1-4.83-2.1,8,8,0,0,1-2-5.61,7.88,7.88,0,0,1,2-5.64,6.35,6.35,0,0,1,4.83-2,5.66,5.66,0,0,1,4.71,2.13A6.65,6.65,0,0,1,155.21-2.1ZM149.4-3.63a2.92,2.92,0,0,0-2.34,1,4.4,4.4,0,0,0-1,2.51h6.21q0-2.37-1.5-3.18A2.93,2.93,0,0,0,149.4-3.63Z"/><path class="cls-3" d="M159.81-12.06h3.54V8.52h-3.54Z"/><path class="cls-3" d="M168.93-12.06h3.54V8.52h-3.54Z"/><path class="cls-3" d="M183.78-6.45a8.08,8.08,0,0,1,2.76.46,5.78,5.78,0,0,1,2.22,1.43,7.93,7.93,0,0,1,2.07,5.82A7.85,7.85,0,0,1,188.76,7a6.61,6.61,0,0,1-5,1.92,6.81,6.81,0,0,1-5-1.92,7.79,7.79,0,0,1-2.07-5.76,7.87,7.87,0,0,1,2.07-5.82A6.81,6.81,0,0,1,183.78-6.45Zm3.51,7.68a5.6,5.6,0,0,0-.9-3.47,3,3,0,0,0-2.51-1.15,3.33,3.33,0,0,0-2.62,1.15,5.12,5.12,0,0,0-1,3.47,5.5,5.5,0,0,0,.91,3.46,3,3,0,0,0,2.51,1.16,3.33,3.33,0,0,0,2.61-1.16A5.09,5.09,0,0,0,187.29,1.23Z"/><path class="cls-4" d="M74.88,32.82q1.32-3.15,4-3.15a5.16,5.16,0,0,1,1.29.21l-.06,3.54a7.86,7.86,0,0,0-1.65-.18q-3.54,0-3.54,4.89v6.39H71.34V29.91h3.54Z"/><path class="cls-4" d="M95.12,33.9a8.13,8.13,0,0,1,.37,2.31,13.45,13.45,0,0,1-.12,1.89H86A5.07,5.07,0,0,0,86.82,41a2.85,2.85,0,0,0,2.46,1.11,2.34,2.34,0,0,0,2.61-1.92h3.57a5.23,5.23,0,0,1-2,3.45,6.62,6.62,0,0,1-4.17,1.32,6.33,6.33,0,0,1-4.83-2.1,8,8,0,0,1-2-5.61,7.88,7.88,0,0,1,2-5.64,6.35,6.35,0,0,1,4.83-2A5.66,5.66,0,0,1,94,31.68,6.65,6.65,0,0,1,95.12,33.9Zm-5.81-1.53a2.92,2.92,0,0,0-2.34,1,4.4,4.4,0,0,0-1,2.51h6.21q0-2.37-1.5-3.18A2.93,2.93,0,0,0,89.31,32.37Z"/><path class="cls-4" d="M103.2,32.46a5.3,5.3,0,0,1,8.69-1.14A7.46,7.46,0,0,1,113.25,36v8.52h-3.54V36a3.45,3.45,0,0,0-.78-2.45,2.87,2.87,0,0,0-2.19-.82A3,3,0,0,0,104.33,34a6.23,6.23,0,0,0-1.07,3.78v6.75H99.72V29.94h3.09Z"/><path class="cls-4" d="M127.92,42.27a4.39,4.39,0,0,1-4.14,2.67,6,6,0,0,1-4.68-2.13,8.23,8.23,0,0,1-1.95-5.64A8.13,8.13,0,0,1,119,31.62a5.84,5.84,0,0,1,4.56-2.07,4.54,4.54,0,0,1,4.11,2.19v-7.8h3.57V44.52h-2.91Zm-3.69-9.54a3.11,3.11,0,0,0-2.5,1.21,5,5,0,0,0-1,3.26,5,5,0,0,0,1,3.28,3.21,3.21,0,0,0,4.89.23,3.58,3.58,0,0,0,1.05-2.64V36.18a3.66,3.66,0,0,0-1.05-2.55A3.24,3.24,0,0,0,124.23,32.73Z"/><path class="cls-4" d="M148.13,33.9a8.13,8.13,0,0,1,.37,2.31,13.45,13.45,0,0,1-.12,1.89H139a5.07,5.07,0,0,0,.87,2.88,2.85,2.85,0,0,0,2.46,1.11,2.34,2.34,0,0,0,2.61-1.92h3.57a5.23,5.23,0,0,1-2,3.45,6.62,6.62,0,0,1-4.17,1.32,6.33,6.33,0,0,1-4.83-2.1,8,8,0,0,1-2-5.61,7.88,7.88,0,0,1,2-5.64,6.35,6.35,0,0,1,4.83-2A5.66,5.66,0,0,1,147,31.68,6.65,6.65,0,0,1,148.13,33.9Zm-5.81-1.53a2.92,2.92,0,0,0-2.34,1,4.4,4.4,0,0,0-1,2.51h6.21q0-2.37-1.5-3.18A2.93,2.93,0,0,0,142.32,32.37Z"/><path class="cls-4" d="M156.27,32.82q1.32-3.15,4-3.15a5.16,5.16,0,0,1,1.29.21l-.06,3.54a7.86,7.86,0,0,0-1.65-.18q-3.54,0-3.54,4.89v6.39h-3.54V29.91h3.54Z"/><path class="cls-5" d="M170.88,48.06q-6.27-5.58-6.27-13.08t6.27-13.08l2.55,1.86a21,21,0,0,0-3.87,5.41A13.38,13.38,0,0,0,168.27,35a13.14,13.14,0,0,0,1.29,5.77,21.25,21.25,0,0,0,3.87,5.39Z"/><path class="cls-5" d="M178,21.9q6.27,5.58,6.27,13.08T178,48.06l-2.58-1.92a20.93,20.93,0,0,0,3.9-5.39,13.59,13.59,0,0,0,0-11.58,21.33,21.33,0,0,0-3.89-5.41Z"/><path class="cls-5" d="M205.62,49.2q-3.93,0-5.91-2.1a7.67,7.67,0,0,1-1.83-5.46V38.91a5.17,5.17,0,0,0-.19-1.73.78.78,0,0,0-.8-.46h-.75V33.15h.75a.78.78,0,0,0,.8-.47,5.1,5.1,0,0,0,.19-1.72V28.2q0-5.37,4.23-7a9.71,9.71,0,0,1,3.51-.57v3.21a4.25,4.25,0,0,0-3.22,1.06,4.71,4.71,0,0,0-1,3.32v2.88a4.57,4.57,0,0,1-.55,2.37,3.36,3.36,0,0,1-1.43,1.35V35a3.36,3.36,0,0,1,1.43,1.35,4.57,4.57,0,0,1,.55,2.37v2.88a4.68,4.68,0,0,0,1,3.31A4.25,4.25,0,0,0,205.62,46Z"/><path class="cls-2" d="M105.24,68.82q1.32-3.15,4-3.15a5.16,5.16,0,0,1,1.29.21l-.06,3.54a7.86,7.86,0,0,0-1.65-.18q-3.54,0-3.54,4.89v6.39H101.7V65.91h3.54Z"/><path class="cls-2" d="M125.48,69.9a8.13,8.13,0,0,1,.37,2.31,13.45,13.45,0,0,1-.12,1.89h-9.42a5.07,5.07,0,0,0,.87,2.88,2.85,2.85,0,0,0,2.46,1.11,2.34,2.34,0,0,0,2.61-1.92h3.57a5.23,5.23,0,0,1-2,3.45,6.62,6.62,0,0,1-4.17,1.32,6.33,6.33,0,0,1-4.83-2.1,8,8,0,0,1-2-5.61,7.88,7.88,0,0,1,2-5.64,6.35,6.35,0,0,1,4.83-2,5.66,5.66,0,0,1,4.71,2.13A6.65,6.65,0,0,1,125.48,69.9Zm-5.81-1.53a2.92,2.92,0,0,0-2.34,1,4.4,4.4,0,0,0-1,2.51h6.21q0-2.37-1.5-3.18A2.93,2.93,0,0,0,119.67,68.37Z"/><path class="cls-2" d="M138.3,80.16a9.2,9.2,0,0,1-3.12.78,6.61,6.61,0,0,1-2-.27,4.54,4.54,0,0,1-1.52-.81,4.31,4.31,0,0,1-1.38-3.39V68.31h-2V65.94h2V62.1h3.54v3.84h4v2.37h-4v8q0,1.8,1.71,1.8a7.21,7.21,0,0,0,2.25-.48Z"/><path class="cls-2" d="M151.62,77.88a4.62,4.62,0,0,1-4.44,2.91q-3.87,0-5.1-3a6.46,6.46,0,0,1-.45-2.55v-9.3h3.54v8.94a2.94,2.94,0,0,0,.69,2.14,2.29,2.29,0,0,0,1.7.71,4.42,4.42,0,0,0,1.69-.29,3.25,3.25,0,0,0,1.2-.85,5.35,5.35,0,0,0,1.17-3.45v-7.2h3.54V80.52h-3.54Z"/><path class="cls-2" d="M164.28,68.82q1.32-3.15,4-3.15a5.16,5.16,0,0,1,1.29.21l-.06,3.54a7.86,7.86,0,0,0-1.65-.18q-3.54,0-3.54,4.89v6.39h-3.54V65.91h3.54Z"/><path class="cls-2" d="M176.7,68.46a5.3,5.3,0,0,1,8.69-1.14A7.46,7.46,0,0,1,186.75,72v8.52h-3.54V72a3.45,3.45,0,0,0-.78-2.45,2.87,2.87,0,0,0-2.19-.82A3,3,0,0,0,177.82,70a6.23,6.23,0,0,0-1.06,3.78v6.75h-3.54V65.94h3.09Z"/><path class="cls-5" d="M205.17,84.06Q198.9,78.48,198.9,71t6.27-13.08l2.55,1.86a21,21,0,0,0-3.87,5.41A13.38,13.38,0,0,0,202.56,71a13.14,13.14,0,0,0,1.29,5.77,21.25,21.25,0,0,0,3.87,5.39Z"/><path class="cls-5" d="M112.62,100.71l-8.73,6.15,8.73,6.12-2.34,2.7-10-7.23v-3.21l10-7.23Z"/><path class="cls-6" d="M126.27,114.27a4.39,4.39,0,0,1-4.14,2.67,6,6,0,0,1-4.68-2.13,8.23,8.23,0,0,1-2-5.64,8.13,8.13,0,0,1,1.86-5.55,5.84,5.84,0,0,1,4.56-2.07,4.54,4.54,0,0,1,4.11,2.19v-7.8h3.57v20.58h-2.91Zm-3.69-9.54a3.11,3.11,0,0,0-2.5,1.21,5.77,5.77,0,0,0,0,6.54,3.21,3.21,0,0,0,4.89.23,3.58,3.58,0,0,0,1-2.64v-1.89a3.66,3.66,0,0,0-1-2.55A3.24,3.24,0,0,0,122.58,104.73Z"/><path class="cls-6" d="M135.06,97.23a2,2,0,0,1,.57-1.52,2.22,2.22,0,0,1,1.62-.55,2.25,2.25,0,0,1,1.61.55,2,2,0,0,1,.58,1.52,2,2,0,0,1-.58,1.51,2.25,2.25,0,0,1-1.61.56,2.23,2.23,0,0,1-1.62-.56A2,2,0,0,1,135.06,97.23Zm.42,4.68H139v14.61h-3.54Z"/><path class="cls-6" d="M146.67,101.94,150,113l3.36-11.07h4.08L152,116.52h-4l-5.43-14.58Z"/><path class="cls-5" d="M161.49,98l10,7.23v3.21l-10,7.23-2.34-2.7,8.7-6.12-8.7-6.15Z"/><path class="cls-7" d="M143.19,133.05v8.13h8.49v-8.13h3.54v19.47h-3.54v-8.25h-8.49v8.25h-3.54V133.05Z"/><path class="cls-7" d="M172.13,141.9a8.13,8.13,0,0,1,.37,2.31,13.45,13.45,0,0,1-.12,1.89H163a5.07,5.07,0,0,0,.87,2.88,2.85,2.85,0,0,0,2.46,1.11,2.34,2.34,0,0,0,2.61-1.92h3.57a5.23,5.23,0,0,1-2,3.45,6.62,6.62,0,0,1-4.17,1.32,6.33,6.33,0,0,1-4.83-2.1,8,8,0,0,1-2-5.61,7.88,7.88,0,0,1,2-5.64,6.35,6.35,0,0,1,4.83-2,5.66,5.66,0,0,1,4.71,2.13A6.65,6.65,0,0,1,172.13,141.9Zm-5.81-1.53a2.92,2.92,0,0,0-2.34,1,4.4,4.4,0,0,0-1,2.51h6.21q0-2.37-1.5-3.18A2.93,2.93,0,0,0,166.32,140.37Z"/><path class="cls-7" d="M176.73,131.94h3.54v20.58h-3.54Z"/><path class="cls-7" d="M185.85,131.94h3.54v20.58h-3.54Z"/><path class="cls-7" d="M200.7,137.55a8.08,8.08,0,0,1,2.76.46,5.78,5.78,0,0,1,2.22,1.43,7.93,7.93,0,0,1,2.07,5.82,7.85,7.85,0,0,1-2.07,5.76,6.61,6.61,0,0,1-5,1.92,6.81,6.81,0,0,1-5-1.92,7.79,7.79,0,0,1-2.07-5.76,7.87,7.87,0,0,1,2.07-5.82A6.81,6.81,0,0,1,200.7,137.55Zm3.51,7.68a5.6,5.6,0,0,0-.9-3.47,3,3,0,0,0-2.51-1.15,3.33,3.33,0,0,0-2.62,1.15,5.12,5.12,0,0,0-1,3.47,5.5,5.5,0,0,0,.91,3.46,3,3,0,0,0,2.51,1.16,3.33,3.33,0,0,0,2.61-1.16A5.09,5.09,0,0,0,204.21,145.23Z"/><path class="cls-7" d="M221.31,133.05l4.29,14.79,4.17-13.5h2.4l4.41,13.56,4.56-14.85h4l-6.69,19.47h-3.72l-3.66-11-3.63,11h-3.72l-6.36-19.47Z"/><path class="cls-7" d="M253,137.55a8.08,8.08,0,0,1,2.76.46,5.78,5.78,0,0,1,2.22,1.43,7.93,7.93,0,0,1,2.07,5.82A7.85,7.85,0,0,1,258,151a6.61,6.61,0,0,1-5,1.92,6.81,6.81,0,0,1-5-1.92,7.79,7.79,0,0,1-2.07-5.76,7.87,7.87,0,0,1,2.07-5.82A6.81,6.81,0,0,1,253,137.55Zm3.51,7.68a5.6,5.6,0,0,0-.9-3.47,3,3,0,0,0-2.51-1.15,3.33,3.33,0,0,0-2.62,1.15,5.12,5.12,0,0,0-1,3.47,5.5,5.5,0,0,0,.91,3.46,3,3,0,0,0,2.51,1.16,3.33,3.33,0,0,0,2.61-1.16A5.09,5.09,0,0,0,256.53,145.23Z"/><path class="cls-7" d="M267.81,140.82q1.32-3.15,4-3.15a5.16,5.16,0,0,1,1.29.21l-.06,3.54a7.86,7.86,0,0,0-1.65-.18q-3.54,0-3.54,4.89v6.39h-3.54V137.91h3.54Z"/><path class="cls-7" d="M276.75,131.94h3.54v20.58h-3.54Z"/><path class="cls-7" d="M295.38,150.27a4.39,4.39,0,0,1-4.14,2.67,6,6,0,0,1-4.68-2.13,8.23,8.23,0,0,1-1.95-5.64,8.13,8.13,0,0,1,1.86-5.55,5.84,5.84,0,0,1,4.56-2.07,4.54,4.54,0,0,1,4.11,2.19v-7.8h3.57v20.58H295.8Zm-3.69-9.54a3.13,3.13,0,0,0-2.51,1.21,5.8,5.8,0,0,0,0,6.54,3.21,3.21,0,0,0,4.89.23,3.58,3.58,0,0,0,1.05-2.64v-1.89a3.66,3.66,0,0,0-1.05-2.55A3.24,3.24,0,0,0,291.69,140.73Z"/><path class="cls-7" d="M304.23,152.13a2.22,2.22,0,0,1-.69-1.68,2.32,2.32,0,0,1,.69-1.71,2.4,2.4,0,0,1,1.77-.69,2.5,2.5,0,0,1,1.8.69,2.27,2.27,0,0,1,.72,1.71,2.18,2.18,0,0,1-.72,1.68,2.56,2.56,0,0,1-1.8.66A2.46,2.46,0,0,1,304.23,152.13Zm-.15-19.53h3.84L307.5,146h-3Z"/><path class="cls-5" d="M112.62,172.71l-8.73,6.15,8.73,6.12-2.34,2.7-10-7.23v-3.21l10-7.23Z"/><path class="cls-5" d="M123.27,166.17h3.63L119.16,191h-3.6Z"/><path class="cls-6" d="M140.43,186.27a4.39,4.39,0,0,1-4.14,2.67,6,6,0,0,1-4.68-2.13,8.23,8.23,0,0,1-2-5.64,8.13,8.13,0,0,1,1.86-5.55,5.84,5.84,0,0,1,4.56-2.07,4.54,4.54,0,0,1,4.11,2.19v-7.8h3.57v20.58h-2.91Zm-3.69-9.54a3.1,3.1,0,0,0-2.5,1.21,5.77,5.77,0,0,0,0,6.54,3.21,3.21,0,0,0,4.89.23,3.58,3.58,0,0,0,1.05-2.64v-1.89a3.66,3.66,0,0,0-1.05-2.55A3.24,3.24,0,0,0,136.74,176.73Z"/><path class="cls-6" d="M149.22,169.23a2,2,0,0,1,.57-1.52,2.22,2.22,0,0,1,1.62-.55,2.25,2.25,0,0,1,1.61.55,2,2,0,0,1,.58,1.52,2,2,0,0,1-.58,1.51,2.25,2.25,0,0,1-1.61.56,2.23,2.23,0,0,1-1.62-.56A2,2,0,0,1,149.22,169.23Zm.42,4.68h3.54v14.61h-3.54Z"/><path class="cls-6" d="M160.83,173.94,164.16,185l3.36-11.07h4.08l-5.43,14.58h-4l-5.43-14.58Z"/><path class="cls-5" d="M175.65,170l10,7.23v3.21l-10,7.23-2.34-2.7,8.7-6.12-8.7-6.15Z"/><path class="cls-5" d="M102.45,201.9q6.27,5.58,6.27,13.08t-6.27,13.08l-2.58-1.92a20.93,20.93,0,0,0,3.9-5.39,13.59,13.59,0,0,0,0-11.58,21.33,21.33,0,0,0-3.89-5.41Z"/><path class="cls-5" d="M121.46,224a1.8,1.8,0,0,1-.59-1.41,2,2,0,0,1,.69-1.51,2.7,2.7,0,0,1,1.89-.63,2.39,2.39,0,0,1,2,.93,3.52,3.52,0,0,1,.75,2.28,5.32,5.32,0,0,1-2,4,6.27,6.27,0,0,1-1.41,1l-2.64-1.32a9.88,9.88,0,0,0,1.76-1.14,2.93,2.93,0,0,0,1-1.47A2.82,2.82,0,0,1,121.46,224Zm.28-9.28a2.22,2.22,0,0,1-.69-1.68,2.32,2.32,0,0,1,.69-1.71,2.4,2.4,0,0,1,1.77-.69,2.5,2.5,0,0,1,1.8.69A2.27,2.27,0,0,1,126,213a2.18,2.18,0,0,1-.72,1.68,2.56,2.56,0,0,1-1.8.66A2.46,2.46,0,0,1,121.74,214.71Z"/><path class="cls-5" d="M68.67,262a4.27,4.27,0,0,0,3.23-1.07,4.68,4.68,0,0,0,1-3.31v-2.88a4.57,4.57,0,0,1,.56-2.37A3.34,3.34,0,0,1,74.88,251v-.15a3.34,3.34,0,0,1-1.42-1.35,4.57,4.57,0,0,1-.56-2.37v-2.88a4.71,4.71,0,0,0-1-3.32,4.27,4.27,0,0,0-3.23-1.06v-3.21q3.93,0,5.94,2.13a7.59,7.59,0,0,1,1.8,5.4V247a5,5,0,0,0,.2,1.72.77.77,0,0,0,.79.47h.75v3.57H77.4a.76.76,0,0,0-.79.46,5.1,5.1,0,0,0-.2,1.73v2.73q0,5.4-4.23,7a10.2,10.2,0,0,1-3.51.54Z"/><path class="cls-7" d="M45.9,298a4.27,4.27,0,0,0,3.23-1.07,4.68,4.68,0,0,0,1-3.31v-2.88a4.57,4.57,0,0,1,.56-2.37A3.34,3.34,0,0,1,52.11,287v-.15a3.34,3.34,0,0,1-1.42-1.35,4.57,4.57,0,0,1-.56-2.37v-2.88a4.71,4.71,0,0,0-1-3.32,4.27,4.27,0,0,0-3.23-1.06v-3.21q3.93,0,5.94,2.13a7.59,7.59,0,0,1,1.8,5.4V283a5,5,0,0,0,.2,1.72.77.77,0,0,0,.79.47h.75v3.57h-.75a.76.76,0,0,0-.79.46,5.1,5.1,0,0,0-.2,1.73v2.73q0,5.4-4.23,7a10.2,10.2,0,0,1-3.51.54Z"/><path class="cls-8" d="M182.39,125H375a0,0,0,0,1,0,0V625a0,0,0,0,1,0,0H182.39A57.39,57.39,0,0,1,125,567.61V182.39A57.39,57.39,0,0,1,182.39,125Z" transform="translate(-125 625) rotate(-90)"/><path class="cls-9" d="M296.42,345.88q4.14-4.2,4.14-11.52t-4.14-11.65a11.64,11.64,0,0,0-4.44-2.84,16.16,16.16,0,0,0-5.52-.94,13.66,13.66,0,0,0-10.08,3.78L263.84,335.3V307.71h-7.08l-11.16,11v-11h-7.08L224.9,321.12a12,12,0,0,0-7.26-2.19A12.74,12.74,0,0,0,208,323l-.18.22-12.3,12.28V309.93h-7.08L187.34,311,172,326.2h-.54V309.93h-7.08L6.08,468.34c10.83,19,26.9,31,51.31,31.66l202.89.68,80.6-80.59a4.32,4.32,0,0,0,1.44-3.35,4.55,4.55,0,0,0-1.44-3.42,5,5,0,0,0-3.6-1.39,5.38,5.38,0,0,0-1.36.18l4.36-4.37.84-26.7h-7.68L322.7,391.73v-12h-7.14l-11.71,11.7a11.8,11.8,0,0,0-5.58,3.61c-.37.34-12.25,12.23-12.41,12.39v-27.7h-7.08L267,391.42a7.45,7.45,0,0,0-4,2.5c-.38.31-1.79,1.73-2.12,2.11v-4.37h-7.08l-9.18,8.95a15.08,15.08,0,0,0-.8-2.2Z"/><path class="cls-7" d="M171.43,309.93V326.2h17V309.93h7.08v38.95h-7.08v-16.5h-17v16.5h-7.08V309.93Z"/><path class="cls-7" d="M229.3,327.63a16.43,16.43,0,0,1,.75,4.63,26.91,26.91,0,0,1-.24,3.78H211a10.14,10.14,0,0,0,1.74,5.76,5.68,5.68,0,0,0,4.92,2.21c2.91,0,4.65-1.27,5.22-3.84H230a10.53,10.53,0,0,1-4,6.91,13.25,13.25,0,0,1-8.34,2.63,12.6,12.6,0,0,1-9.66-4.2,15.9,15.9,0,0,1-4-11.21q0-7,4-11.29a12.72,12.72,0,0,1,9.66-4.08,11.32,11.32,0,0,1,9.42,4.27A13.72,13.72,0,0,1,229.3,327.63Zm-11.61-3.05a5.83,5.83,0,0,0-4.68,1.95,8.77,8.77,0,0,0-2,5h12.42c0-3.16-1-5.28-3-6.37A6,6,0,0,0,217.69,324.58Z"/><path class="cls-7" d="M238.51,307.71h7.08v41.17h-7.08Z"/><path class="cls-7" d="M256.74,307.71h7.08v41.17h-7.08Z"/><path class="cls-7" d="M286.44,318.93a16.16,16.16,0,0,1,5.52.94,11.64,11.64,0,0,1,4.44,2.84q4.14,4.21,4.14,11.65t-4.14,11.52q-3.72,3.84-10,3.83a13.62,13.62,0,0,1-10.08-3.83q-4.14-4.14-4.14-11.52t4.14-11.65A13.66,13.66,0,0,1,286.44,318.93Zm7,15.37c0-3.09-.6-5.39-1.8-6.93a6,6,0,0,0-5-2.32,6.69,6.69,0,0,0-5.25,2.32c-1.36,1.54-2,3.84-2,6.93s.61,5.39,1.83,6.92a6,6,0,0,0,5,2.32,6.63,6.63,0,0,0,5.22-2.32Q293.46,338.92,293.46,334.3Z"/><path class="cls-7" d="M167.89,381.93l8.58,29.58,8.34-27h4.8l8.82,27.12,9.12-29.7h8l-13.38,38.95h-7.44l-7.32-22-7.26,22h-7.44L160,381.93Z"/><path class="cls-7" d="M231.31,390.93a16.16,16.16,0,0,1,5.52.94,11.64,11.64,0,0,1,4.44,2.84q4.14,4.21,4.14,11.65t-4.14,11.52q-3.72,3.84-10,3.83a13.61,13.61,0,0,1-10.08-3.83q-4.14-4.14-4.14-11.52t4.14-11.65A13.66,13.66,0,0,1,231.31,390.93Zm7,15.37c0-3.09-.6-5.39-1.8-6.93a6,6,0,0,0-5-2.32,6.69,6.69,0,0,0-5.25,2.32c-1.36,1.54-2,3.84-2,6.93s.61,5.39,1.83,6.92a6,6,0,0,0,5,2.32,6.63,6.63,0,0,0,5.22-2.32C237.64,411.69,238.33,409.38,238.33,406.3Z"/><path class="cls-7" d="M260.89,397.47c1.76-4.19,4.4-6.3,7.92-6.3a10.81,10.81,0,0,1,2.58.42l-.12,7.08a15.7,15.7,0,0,0-3.3-.35q-7.08,0-7.08,9.77v12.79h-7.08V391.66h7.08Z"/><path class="cls-7" d="M278.77,379.71h7.08v41.17h-7.08Z"/><path class="cls-7" d="M316,416.38q-2.7,5.34-8.28,5.33a12,12,0,0,1-9.36-4.25,16.47,16.47,0,0,1-3.9-11.29q0-6.82,3.72-11.09a11.69,11.69,0,0,1,9.12-4.15,9.09,9.09,0,0,1,8.22,4.39V379.71h7.14v41.17h-5.82Zm-7.38-19.08a6.27,6.27,0,0,0-5,2.42,11.57,11.57,0,0,0,0,13.08,6.42,6.42,0,0,0,9.78.46,7.17,7.17,0,0,0,2.1-5.29V404.2a7.37,7.37,0,0,0-2.1-5.11A6.48,6.48,0,0,0,308.64,397.3Z"/><path class="cls-7" d="M333.72,420.09a4.41,4.41,0,0,1-1.38-3.35,4.64,4.64,0,0,1,1.38-3.42,4.8,4.8,0,0,1,3.54-1.39,5,5,0,0,1,3.6,1.39,4.55,4.55,0,0,1,1.44,3.42,4.32,4.32,0,0,1-1.44,3.35,5.13,5.13,0,0,1-3.6,1.33A4.92,4.92,0,0,1,333.72,420.09Zm-.3-39h7.68l-.84,26.7H334.2Z"/></svg>