
<svg width="150px" height="32px" viewBox="0 0 150 32" version="1.1" xmlns="http://www.w3.org/2000/svg" xmlns:xlink="http://www.w3.org/1999/xlink">
    <g id="Page-2" stroke="none" stroke-width="1" fill="none" fill-rule="evenodd">
        <g id="Documentation-Desktop-Copy" transform="translate(-1070.000000, -22.000000)" fill="#4B4846">
            <g id="Logo" transform="translate(1070.000000, 22.000000)">
                <g id="Group-20">
                    <path d="M49.3278689,21.512235 C47.7995902,21.5134657 46.5602459,20.2753119 46.5590164,18.7454657 C46.5590164,18.6506965 46.5639344,18.5559273 46.5737705,18.461158 C46.429918,16.9374657 47.5463115,15.5873119 49.0672131,15.4420811 C50.5881148,15.2993119 51.9381148,16.4156196 52.0819672,17.9393119 C52.0979508,18.1116196 52.0979508,18.2876196 52.0819672,18.461158 C52.2516393,19.9663888 51.1696721,21.3263888 49.6647541,21.4950042 C49.5528689,21.5085427 49.4409836,21.5134657 49.3278689,21.512235 M49.3278689,11.9860811 C45.7487705,11.9934657 42.8532787,14.9030042 42.8606557,18.4845427 C42.8680328,22.0673119 45.7733607,24.9657734 49.352459,24.9596196 C52.9315574,24.952235 55.8270492,22.0426965 55.8196721,18.461158 C55.9094262,14.9743888 53.1590164,12.0759273 49.6770492,11.9860811 C49.5602459,11.9823888 49.4446721,11.9823888 49.3278689,11.9860811" id="Fill-2"></path>
                    <path d="M60.6270492,14.005035 L60.6270492,12.4173427 L57.0122951,12.4173427 L57.0122951,24.6388811 L60.7008197,24.6388811 L60.7008197,19.2481119 C60.7008197,16.7865734 62.0532787,15.925035 63.5532787,15.925035 C63.9663934,15.9151888 64.3795082,15.957035 64.7827869,16.0481119 L64.7827869,12.4173427 C64.4618852,12.3324196 64.1311475,12.2905734 63.7991803,12.2942657 C62.5045082,12.2241119 61.279918,12.8838042 60.6270492,14.005035" id="Fill-4"></path>
                    <path d="M80.2865164,11.9864503 C78.7705328,11.8916811 77.3221721,12.6276811 76.4996311,13.9064503 C75.7766803,12.6116811 74.3627459,11.8596811 72.884877,11.9864503 C71.4943033,11.9655273 70.1811885,12.6276811 69.3684836,13.758758 L69.3684836,12.4172196 L65.8029098,12.4172196 L65.8029098,24.638758 L69.4914344,24.638758 L69.4914344,17.5495273 C69.4164344,16.457835 70.2402049,15.5113734 71.3307787,15.4375273 C71.3897951,15.4326042 71.4488115,15.4313734 71.5078279,15.4326042 C72.5307787,15.3649119 73.4160246,16.1402965 73.4836475,17.1642965 C73.4910246,17.2762965 73.4885656,17.3882965 73.475041,17.5002965 L73.475041,24.5895273 L77.1635656,24.5895273 L77.1635656,17.5249119 C77.1020902,16.4319888 77.9369262,15.4966042 79.0287295,15.4350657 C79.0865164,15.4313734 79.1455328,15.4301427 79.2045492,15.4326042 C80.2287295,15.3784503 81.1029098,16.1661427 81.1570082,17.1901427 C81.1631557,17.2935273 81.1594672,17.3969119 81.1471721,17.5002965 L81.1471721,24.5895273 L84.8123361,24.5895273 L84.8123361,16.6633734 C85.032418,14.3089119 83.3061885,12.2190657 80.9529098,11.9975273 C80.7315984,11.9766042 80.5090574,11.9729119 80.2865164,11.9864503" id="Fill-6"></path>
                    <polygon id="Fill-8" points="86.7418033 24.5773427 90.4795082 24.5773427 90.4795082 12.3558042 86.7418033 12.3558042"></polygon>
                    <path d="M88.5856967,6.43592727 C87.3783197,6.44946573 86.4082377,7.44146573 86.4217623,8.65131189 C86.4352869,9.86115804 87.4275,10.8310042 88.634877,10.8174657 C89.834877,10.8039273 90.7988115,9.8266965 90.7988115,8.6266965 C90.800041,7.41685035 89.820123,6.43592727 88.6115164,6.43592727 C88.6029098,6.43592727 88.5943033,6.43592727 88.5856967,6.43592727" id="Fill-10"></path>
                    <path d="M98.1395902,21.5495273 C96.6186885,21.5606042 95.3768852,20.3359888 95.3645902,18.8122965 C95.3645902,18.6953734 95.3707377,18.5772196 95.3854918,18.4602965 C95.2416393,16.937835 96.3580328,15.5864503 97.8789344,15.4424503 C99.3998361,15.2984503 100.749836,16.4159888 100.893689,17.9384503 C100.909672,18.1119888 100.909672,18.2879888 100.893689,18.4602965 C101.055984,19.9741427 99.9617213,21.3329119 98.4506557,21.4966042 C98.347377,21.5076811 98.2428689,21.513835 98.1395902,21.5126042 L98.1395902,21.5495273 Z M104.533033,6.7802965 L100.844508,6.7802965 L100.844508,13.3279888 C100.549426,12.8602965 99.615,12.0972196 97.5494262,12.0972196 C94.2555738,12.110758 91.5961475,14.7926042 91.6084426,18.0886042 C91.6096721,18.217835 91.6133607,18.3446042 91.6231967,18.4726042 C91.4190984,21.8104503 93.9580328,24.681835 97.292459,24.8861427 C97.4178689,24.8935273 97.5457377,24.8984503 97.672377,24.8972196 C98.9313934,24.9636811 100.147377,24.4246042 100.941639,23.4449119 C100.945328,23.8572196 100.978525,24.2682965 101.04,24.6756811 L104.630164,24.6756811 C104.630164,24.4049119 104.533033,23.5926042 104.533033,22.4849119 L104.533033,6.7802965 Z" id="Fill-11"></path>
                    <path d="M113.139836,19.7898965 C113.340246,20.9345119 112.575492,22.0249734 111.43082,22.2255888 C111.257459,22.2575888 111.077951,22.2662042 110.902131,22.251435 C110.234508,22.3745119 109.592705,21.9302042 109.470984,21.2618965 C109.45623,21.1831273 109.448852,21.1006657 109.451311,21.0206657 C109.450082,20.2735888 110.05623,19.6655888 110.80377,19.6655888 L110.827131,19.6655888 L113.139836,19.2975888 L113.139836,19.8022042 L113.139836,19.7898965 Z M116.828361,16.7129734 C116.828361,14.251435 115.376311,11.9868196 111.418525,11.9868196 C107.828361,11.9868196 106.20418,14.3006657 106.056639,16.048358 L109.30377,16.7129734 C109.375082,15.6385119 110.295984,14.8225119 111.369344,14.8791273 C112.189426,14.7178965 112.982459,15.2520503 113.143525,16.0729734 C113.153361,16.1185119 113.159508,16.1628196 113.164426,16.208358 C113.165656,16.6698965 112.790656,17.0465119 112.32959,17.0465119 C112.312377,17.0465119 112.295164,17.0465119 112.27918,17.0452811 L109.402131,17.488358 C107.406639,17.5597427 105.818115,19.1831273 105.787377,21.1806657 C106.098443,23.5252811 108.250082,25.1732811 110.593525,24.8606657 C111.735738,24.7080503 112.769754,24.1000503 113.459508,23.1745119 C113.445984,23.6372811 113.486557,24.1000503 113.58123,24.5529734 L116.951311,24.5529734 C116.851721,23.9252811 116.802541,23.2926657 116.802541,22.6575888 L116.802541,16.7129734 L116.828361,16.7129734 Z" id="Fill-12"></path>
                    <path d="M125.13959,21.512235 C123.605164,21.5196196 122.354754,20.280235 122.347377,18.744235 C122.347377,18.6494657 122.351066,18.5546965 122.360902,18.461158 C122.21582,16.9313119 123.338361,15.5737734 124.86541,15.4297734 C126.394918,15.2857734 127.748607,16.408235 127.893689,17.9380811 C127.909672,18.1116196 127.909672,18.2863888 127.893689,18.461158 C128.063361,19.9663888 126.981393,21.3263888 125.476475,21.4950042 C125.36459,21.5085427 125.252705,21.5134657 125.13959,21.512235 M125.951066,12.0599273 C124.619508,11.9848503 123.324836,12.5190042 122.434672,13.512235 L122.434672,6.77992727 L118.746148,6.77992727 L118.746148,24.589158 L122.360902,24.589158 L122.360902,23.2106965 C123.147787,24.3183888 124.448607,24.941158 125.803525,24.861158 C129.220328,24.861158 131.631393,22.1768503 131.631393,18.4353119 C131.631393,14.6937734 129.492049,12.0599273 125.951066,12.0599273" id="Fill-13"></path>
                    <polygon id="Fill-14" points="132.82377 24.5896503 136.561475 24.5896503 136.561475 6.78041958 132.82377 6.78041958"></polygon>
                    <path d="M141.442623,17.0327273 C141.577869,15.7958042 142.661066,14.885035 143.901639,14.965035 C145.101639,14.8136503 146.194672,15.6653427 146.345902,16.8653427 C146.353279,16.9207273 146.358197,16.9773427 146.360656,17.0327273 L141.442623,17.0327273 Z M149.95082,18.2634965 C149.95082,14.325035 147.615984,11.9865734 143.803279,11.9865734 C140.407377,11.9828811 137.652049,14.7348811 137.648361,18.1342657 C137.648361,18.2351888 137.65082,18.3361119 137.655738,18.4358042 C137.492213,21.8721119 140.140574,24.7902657 143.572131,24.953958 C143.723361,24.9601119 143.87459,24.9625734 144.02459,24.9588811 C146.615164,25.1681119 148.997951,23.5287273 149.729508,21.0327273 L146.606557,20.1465734 C146.257377,21.1865734 145.239344,21.849958 144.147541,21.7465734 C142.740984,21.8278042 141.517623,20.7865734 141.368852,19.3834965 L149.877049,19.3834965 C149.928689,19.0118042 149.954508,18.6388811 149.95082,18.2634965 Z" id="Fill-15"></path>
                    <polygon id="Fill-1" points="35.8771721 10.8296503 43.2296311 10.8296503 43.2296311 7.14965035 32.0042213 7.14965035 32.0042213 24.5896503 35.9140574 24.5896503 35.9140574 18.0665734 42.3443852 18.0665734 42.3443852 14.521958 35.8771721 14.521958"></polygon>
                    <polygon id="Fill-16" points="6.86065574 0.10965035 0 28.3558042 6.86065574 20.0358042"></polygon>
                    <polygon id="Fill-17" opacity="0.7" points="6.86065574 0.10965035 22.6352459 14.8788811 6.86065574 20.0358042"></polygon>
                    <polygon id="Fill-18" opacity="0.45" points="6.86065574 31.2730965 22.6352459 14.8792503 6.86065574 20.0361734"></polygon>
                    <polygon id="Fill-19" opacity="0.15" points="-0.00012295082 28.3560503 6.86053279 20.0360503 6.86053279 31.2729734"></polygon>
                </g>
            </g>
        </g>
    </g>
</svg>