<svg xmlns="http://www.w3.org/2000/svg" width="150" height="150" fill-rule="evenodd"><path d="M85.46 2.682l48.91 21.7a26 26 0 0 1 15.452 23.764v52.688a26 26 0 0 1-15.452 23.764l-48.91 21.7a26 26 0 0 1-21.096 0l-48.91-21.7A26 26 0 0 1 0 100.844V48.156a26 26 0 0 1 15.452-23.764l48.91-21.7a26 26 0 0 1 21.096 0z" fill="#202020"/><g fill="#FC6986"><path d="M3.5 108h143c-2.484 9.177-26.382 22.044-71.696 38.602C28.596 130.793 4.828 117.926 3.5 108z"/><g fill-rule="nonzero"><path d="M74.91 17.587l-52.3 23.163A7.75 7.75 0 0 0 18 47.837v53.27a7.75 7.75 0 0 0 4.657 7.106l52.254 22.743 52.254-22.743a7.75 7.75 0 0 0 4.657-7.106v-53.27a7.75 7.75 0 0 0-4.612-7.086l-52.3-23.163zm0-6.562l54.738 24.2c4.858 2.19 8.173 7.17 8.173 12.61v53.27a13.75 13.75 0 0 1-8.263 12.607L74.91 137.5l-54.648-23.785A13.75 13.75 0 0 1 12 101.108v-53.27c0-5.44 3.413-10.513 8.182-12.61l54.73-24.2z" opacity=".4"/><path d="M74.91 11.06L20.345 35.15A14 14 0 0 0 12 47.957v53.086a14 14 0 0 0 8.345 12.807l54.566 24.09 54.566-24.09a14 14 0 0 0 8.345-12.807V47.957a14 14 0 0 0-8.345-12.807L74.91 11.06zm.083-6.56l56.828 25.32c7.247 3.2 12 10.214 12 18.136v53.086a20 20 0 0 1-11.922 18.296L74.91 144.5l-56.99-25.16A20 20 0 0 1 6 101.043V47.957c0-7.92 4.83-14.955 11.922-18.115L74.994 4.5z" opacity=".7"/><path d="M83.025 8.166a20 20 0 0 0-16.228 0l-48.91 21.71A20 20 0 0 0 6 48.156v52.688a20 20 0 0 0 11.886 18.28l48.91 21.71a20 20 0 0 0 16.228 0l48.91-21.71a20 20 0 0 0 11.886-18.28V48.156a20 20 0 0 0-11.886-18.28l-48.91-21.71zm2.434-5.484l48.91 21.7a26 26 0 0 1 15.452 23.764v52.688a26 26 0 0 1-15.452 23.764l-48.91 21.7a26 26 0 0 1-21.096 0l-48.91-21.7A26 26 0 0 1 0 100.844V48.156a26 26 0 0 1 15.452-23.764l48.91-21.7a26 26 0 0 1 21.096 0z"/></g><text font-family="Helvetica" font-size="70" transform="translate(0 -2)"><tspan x="49.566" y="102">S</tspan></text><path d="M75.087 2.5l17.605 9.413c-2.262 7.532-9.288 13.022-17.605 13.022-8.278 0-15.277-5.44-17.573-12.916L75.087 2.5z"/></g><g fill="#1D1E1F" transform="translate(0 -2)" font-weight="bold" font-size="12" font-family="Akkurat-Bold, Akkurat"><text letter-spacing=".069"><tspan x="67.84" y="19">03</tspan></text><text letter-spacing=".9"><tspan x="38.342" y="124.204">SPECTACL</tspan><tspan x="102.902" y="124.204">E</tspan></text></g></svg>