<svg xmlns="http://www.w3.org/2000/svg" width="150" height="32" fill="#fff" fill-rule="evenodd"><path d="M49.328 21.512a2.77 2.77 0 0 1-2.769-2.767 2.75 2.75 0 0 1 .015-.284 2.77 2.77 0 0 1 2.493-3.019 2.77 2.77 0 0 1 3.015 2.497c.016.172.016.348 0 .522.17 1.505-.912 2.865-2.417 3.034-.112.014-.224.018-.337.017m0-9.526c-3.58.007-6.475 2.917-6.467 6.498s2.913 6.48 6.492 6.475 6.475-2.917 6.467-6.498c.1-3.487-2.66-6.385-6.143-6.475-.117-.004-.232-.004-.35 0m11.3 2.02v-1.588h-3.615V24.64h3.7v-5.4c0-2.462 1.352-3.323 2.852-3.323a5.04 5.04 0 0 1 1.23.123V12.4a3.67 3.67 0 0 0-.984-.123c-1.295-.07-2.52.6-3.172 1.7m19.65-2a4.19 4.19 0 0 0-3.787 1.92 3.77 3.77 0 0 0-3.615-1.92 4.25 4.25 0 0 0-3.516 1.772v-1.342h-3.566V24.64h3.7v-7.1a1.98 1.98 0 0 1 1.839-2.112 1.7 1.7 0 0 1 .177-.005 1.86 1.86 0 0 1 1.976 1.732 1.72 1.72 0 0 1-.01.336v7.1h3.7v-7.065a1.98 1.98 0 0 1 1.865-2.09 1.67 1.67 0 0 1 .176-.002 1.86 1.86 0 0 1 1.952 1.758 1.64 1.64 0 0 1-.01.3v7.1h3.665v-7.926c.22-2.354-1.506-4.444-3.86-4.666a4.3 4.3 0 0 0-.666-.011m6.455 12.598H90.5v-12.22h-3.738zm1.823-18.15a2.191 2.191 0 1 0 .026 0h-.026M98.14 21.55a2.76 2.76 0 0 1-2.775-2.737 2.97 2.97 0 0 1 .02-.352 2.77 2.77 0 0 1 2.493-3.018 2.77 2.77 0 0 1 3.015 2.496c.016.174.016.35 0 .522a2.76 2.76 0 0 1-2.443 3.036l-.3.016v.037zm6.393-14.77h-3.7v6.548c-.295-.468-1.23-1.23-3.295-1.23a5.97 5.97 0 0 0-5.941 5.991l.015.384c-.204 3.338 2.335 6.2 5.67 6.414l.38.01a3.94 3.94 0 0 0 3.269-1.452 8.88 8.88 0 0 0 .098 1.23h3.6l-.097-2.2V6.78zm8.607 13.02c.2 1.145-.564 2.235-1.7 2.436-.173.032-.353.04-.53.026a1.23 1.23 0 0 1-1.431-.99c-.015-.08-.022-.16-.02-.24-.001-.747.605-1.355 1.352-1.355h.023l2.313-.368v.492zm3.7-3.077c0-2.462-1.452-4.726-5.4-4.726-3.6 0-5.214 2.314-5.362 4.062l3.247.665a1.96 1.96 0 0 1 2.066-1.834 1.51 1.51 0 0 1 1.774 1.194 1.29 1.29 0 0 1 .021.135c.001.462-.374.838-.835.838-.017 0-.034 0-.05-.001l-2.877.443a3.75 3.75 0 0 0-3.615 3.692 4.28 4.28 0 0 0 4.806 3.68c1.142-.153 2.176-.76 2.866-1.686-.014.463.027.926.122 1.378h3.37a12.03 12.03 0 0 1-.15-1.895v-5.945h.026zm8.3 4.8a2.78 2.78 0 0 1-2.792-2.768l.014-.283a2.78 2.78 0 0 1 2.505-3.031 2.78 2.78 0 0 1 3.028 2.508 2.86 2.86 0 0 1 0 .523c.17 1.505-.912 2.865-2.417 3.034a2.59 2.59 0 0 1-.337.017m.8-9.452a4.39 4.39 0 0 0-3.516 1.452V6.78h-3.7v17.8h3.615V23.2c.787 1.108 2.088 1.73 3.443 1.65 3.417 0 5.828-2.684 5.828-6.426s-2.14-6.375-5.68-6.375m6.893 12.55h3.738V6.78h-3.738zm8.62-7.567c.135-1.237 1.218-2.148 2.46-2.068a2.19 2.19 0 0 1 2.444 1.9l.015.167h-4.918zm8.508 1.23c0-3.938-2.335-6.277-6.148-6.277-3.396-.004-6.15 2.748-6.155 6.148l.007.302c-.164 3.436 2.485 6.354 5.916 6.518l.452.005a5.49 5.49 0 0 0 5.705-3.926l-3.123-.886a2.36 2.36 0 0 1-2.459 1.6c-1.407.08-2.63-.96-2.78-2.363h8.508c.052-.372.077-.745.074-1.12zM35.877 10.83h7.352V7.15H32.004V24.6h3.9v-6.523h6.43v-3.545h-6.467z"/><path d="M6.86.1L0 28.356l6.86-8.32z" opacity=".15"/><path d="M6.86.1l15.775 14.77L6.86 20.036z"/><path d="M6.86 31.273L22.635 14.88 6.86 20.036z" opacity=".7"/><path d="M0 28.356l6.86-8.32v11.237z" opacity=".45"/></svg>