<?xml version="1.0" standalone="no"?>
<!DOCTYPE svg PUBLIC "-//W3C//DTD SVG 20010904//EN"
 "http://www.w3.org/TR/2001/REC-SVG-20010904/DTD/svg10.dtd">
<svg version="1.0" xmlns="http://www.w3.org/2000/svg"
 width="343.000000pt" height="343.000000pt" viewBox="0 0 343.000000 343.000000"
 preserveAspectRatio="xMidYMid meet">
<metadata>
Created by potrace 1.11, written by Peter Selinger 2001-2013
</metadata>
<g transform="translate(0.000000,343.000000) scale(0.100000,-0.100000)"
fill="#000000" stroke="none">
<path d="M1666 2835 c-74 -26 -91 -57 -102 -190 -3 -44 -8 -87 -9 -95 -2 -8
-6 -48 -10 -87 -4 -40 -8 -81 -10 -90 -2 -10 -4 -27 -4 -38 -1 -15 -5 -13 -18
13 -78 158 -307 201 -448 84 -82 -68 -120 -175 -100 -282 l6 -35 -38 39 c-52
54 -128 87 -201 88 -118 2 -211 -52 -267 -153 -25 -45 -30 -67 -32 -134 -2
-71 1 -87 26 -136 l28 -56 -46 26 c-39 22 -58 26 -126 26 -92 0 -150 -23 -211
-84 -119 -119 -114 -319 12 -430 25 -21 92 -59 161 -89 102 -44 240 -106 413
-183 25 -11 63 -29 85 -39 22 -10 76 -34 120 -53 101 -44 568 -254 657 -297
93 -43 158 -49 248 -20 87 28 157 89 194 170 29 63 34 119 22 235 -14 133 -15
138 -21 205 -3 36 -8 76 -10 90 -2 14 -7 54 -10 90 -3 36 -8 81 -10 100 -2 19
-9 82 -15 140 -6 58 -13 121 -15 140 -3 19 -7 67 -11 105 -3 39 -7 81 -9 95
-8 79 -14 174 -10 165 2 -5 15 -80 29 -165 14 -85 28 -166 30 -180 3 -14 7
-41 10 -60 3 -19 8 -46 10 -60 3 -14 7 -41 10 -60 6 -34 9 -52 22 -130 3 -19
8 -46 10 -60 2 -14 8 -52 14 -85 5 -33 14 -89 20 -125 5 -36 12 -76 15 -90 16
-75 27 -173 28 -236 1 -57 -4 -81 -25 -123 -14 -28 -24 -51 -22 -51 4 0 1092
485 1159 516 241 114 247 436 10 545 -82 38 -177 36 -248 -4 -27 -14 -47 -23
-45 -19 72 137 74 225 10 340 -86 154 -321 181 -451 52 l-49 -48 10 36 c25 89
-17 210 -97 280 -146 128 -385 77 -459 -98 -14 -35 -12 -45 -32 150 -2 19 -5
58 -8 85 -3 28 -9 79 -12 115 -3 36 -12 76 -19 90 -31 61 -95 87 -159 65z
m238 -651 c3 -8 2 -12 -4 -9 -6 3 -10 10 -10 16 0 14 7 11 14 -7z"/>
</g>
</svg>
